<?xml version="1.0" encoding="UTF-8"?>
<svg version="1.1" xmlns="http://www.w3.org/2000/svg" width="820" height="160">
<path d="M0 0 C1.74292177 1.74292177 1.11980303 4.00623495 1.12442017 6.32824707 C1.11902725 7.472995 1.11902725 7.472995 1.11352539 8.64086914 C1.11367142 9.44080795 1.11381744 10.24074677 1.1139679 11.06492615 C1.11326855 13.72169665 1.10547518 16.37839793 1.09765625 19.03515625 C1.09579215 20.87218691 1.09436821 22.70921806 1.09336853 24.54624939 C1.08954275 29.39109662 1.07971196 34.23591408 1.06866455 39.08074951 C1.05845172 44.02062578 1.05387119 48.96050685 1.04882812 53.90039062 C1.03808974 63.60027353 1.0210126 73.30013429 1 83 C0.1808974 83.12619248 0.1808974 83.12619248 -0.65475273 83.25493431 C-3.15281389 83.64100532 -5.65037995 84.03019368 -8.14794922 84.41943359 C-9.00696335 84.5517186 -9.86597748 84.6840036 -10.75102234 84.82029724 C-16.65707306 85.74376561 -22.40848805 86.84966607 -28.125 88.625 C-28.93775391 88.8722583 -29.75050781 89.1195166 -30.58789062 89.37426758 C-39.87460624 92.36430859 -49.63323045 96.69004295 -57.28125 102.83203125 C-57.8484375 103.21746094 -58.415625 103.60289062 -59 104 C-59.99 103.67 -60.98 103.34 -62 103 C-62.23200416 92.56028643 -62.40953234 82.1211887 -62.51812172 71.67941952 C-62.57024916 66.83035487 -62.6409074 61.98305728 -62.75439453 57.13500977 C-62.86329456 52.45345871 -62.92288964 47.77360336 -62.94877243 43.09088326 C-62.96720832 41.3073106 -63.00321413 39.52382786 -63.05730057 37.74098015 C-63.46395355 23.77730412 -63.46395355 23.77730412 -59.848526 19.38801575 C-57.29160128 17.56545268 -54.87291122 16.25065961 -52 15 C-50.65440135 14.24585475 -49.31320429 13.48368224 -47.98046875 12.70703125 C-46.72182156 12.06428317 -45.45740055 11.43271806 -44.1875 10.8125 C-43.16837524 10.30952393 -43.16837524 10.30952393 -42.12866211 9.79638672 C-35.94614304 6.82756403 -29.64701153 4.69539161 -23 3 C-22.17886719 2.78730469 -21.35773438 2.57460938 -20.51171875 2.35546875 C-13.88202654 0.76388461 -6.83498475 -0.42718655 0 0 Z " fill="#246453" transform="translate(146,46)"/>
<path d="M0 0 C15.64662416 0.83111399 30.47182891 5.17495594 44.5078125 12.0546875 C45.11129139 12.31860228 45.71477028 12.58251705 46.33653641 12.85442924 C57.12359895 17.64837218 57.12359895 17.64837218 59.28362274 22.96382523 C60.49061548 28.6153511 60.11403773 34.3539427 59.875 40.08984375 C59.84885447 41.9377845 59.82894188 43.78582298 59.81497192 45.63389587 C59.76176772 50.47481034 59.62451518 55.30974741 59.46911621 60.14831543 C59.32532427 65.09479897 59.26184017 70.04225883 59.19140625 74.99023438 C59.04171201 84.68099774 58.80311781 94.3673438 58.5078125 104.0546875 C54.44529448 102.48884942 50.92248563 100.56464206 47.1953125 98.3046875 C33.27381558 90.15719457 18.64557531 86.44709108 2.7722168 84.01464844 C1.59966843 83.83480408 0.42712006 83.65495972 -0.78096008 83.46966553 C-1.67566513 83.33272278 -2.57037018 83.19578003 -3.4921875 83.0546875 C-3.51531078 72.38049052 -3.53310251 61.70629944 -3.54399967 51.03208256 C-3.54922853 46.07614828 -3.55632624 41.12023108 -3.56762695 36.16430664 C-3.57845572 31.38569914 -3.58446431 26.60710812 -3.58706474 21.8284893 C-3.58891901 20.00115131 -3.59253966 18.17381426 -3.59791756 16.34648323 C-3.60512786 13.79615421 -3.60617845 11.24589413 -3.60571289 8.69555664 C-3.60930817 7.93239136 -3.61290344 7.16922607 -3.61660767 6.38293457 C-3.60407297 0.07908624 -3.60407297 0.07908624 0 0 Z " fill="#246453" transform="translate(17.4921875,45.9453125)"/>
<path d="M0 0 C6.17586992 6.33288356 9.3309878 13.76933605 9.46826172 22.59643555 C9.45811035 23.34836182 9.44795898 24.10028809 9.4375 24.875 C9.42992676 25.66366455 9.42235352 26.4523291 9.41455078 27.26489258 C9.16851821 35.98827356 6.79277141 43.00246242 0.7734375 49.46484375 C-7.79221337 56.87960321 -17.02923339 57.75614715 -28 57 C-32.81260905 55.88703618 -36.81355759 53.55917798 -41 51 C-40.99214478 52.21901001 -40.99214478 52.21901001 -40.98413086 53.46264648 C-40.96343006 57.12092322 -40.95036197 60.77918767 -40.9375 64.4375 C-40.92912109 65.71689453 -40.92074219 66.99628906 -40.91210938 68.31445312 C-40.90727539 70.13686523 -40.90727539 70.13686523 -40.90234375 71.99609375 C-40.89448853 73.68496704 -40.89448853 73.68496704 -40.88647461 75.40795898 C-41 78 -41 78 -42 79 C-43.58075127 79.09952878 -45.16612545 79.12968602 -46.75 79.125 C-47.61109375 79.12757813 -48.4721875 79.13015625 -49.359375 79.1328125 C-51.99997711 79.00000115 -54.41728565 78.54387147 -57 78 C-57.02312312 67.19541915 -57.04091493 56.39084414 -57.05181217 45.58624363 C-57.05704107 40.5697753 -57.06413883 35.55332385 -57.07543945 30.53686523 C-57.0862681 25.69990306 -57.09227679 20.86295716 -57.09487724 16.02598381 C-57.09673153 14.17631715 -57.10035222 12.32665143 -57.10573006 10.47699165 C-57.1129402 7.89552986 -57.11399095 5.31413618 -57.11352539 2.73266602 C-57.11712067 1.96014999 -57.12071594 1.18763397 -57.12442017 0.39170837 C-57.11405216 -4.88594784 -57.11405216 -4.88594784 -56 -6 C-53.64686445 -6.07271741 -51.29166332 -6.08370868 -48.9375 -6.0625 C-47.64714844 -6.05347656 -46.35679687 -6.04445312 -45.02734375 -6.03515625 C-44.02832031 -6.02355469 -43.02929688 -6.01195312 -42 -6 C-41.34 -4.68 -40.68 -3.36 -40 -2 C-39.03900391 -2.52400391 -39.03900391 -2.52400391 -38.05859375 -3.05859375 C-25.23865684 -9.80291227 -11.56755195 -9.47198095 0 0 Z M-36 11 C-40.01447956 16.28220995 -41.23925715 21.3736173 -41 28 C-40.02075591 33.8239254 -37.30805137 37.18332248 -32.81640625 40.87109375 C-28.81235961 43.35963026 -24.6163462 43.38469552 -20 43 C-14.43448154 41.33880913 -10.66141803 38.51308016 -7.84765625 33.41015625 C-5.96561756 28.0589218 -5.92394272 22.19955329 -7.734375 16.81640625 C-10.08910171 12.32891478 -13.50699302 9.24650349 -18 7 C-25.10855901 6.28089204 -30.32865346 6.48607112 -36 11 Z " fill="#236152" transform="translate(679,66)"/>
<path d="M0 0 C3.6815625 -0.0309375 3.6815625 -0.0309375 7.4375 -0.0625 C8.21150146 -0.071604 8.98550293 -0.08070801 9.78295898 -0.09008789 C11.52221717 -0.09724913 13.26145304 -0.05024702 15 0 C16.76328472 1.76328472 16.12615644 4.09517144 16.13552856 6.44406128 C16.13249222 7.61450485 16.13249222 7.61450485 16.12939453 8.80859375 C16.13202301 10.03535324 16.13202301 10.03535324 16.13470459 11.28689575 C16.13912385 14.0037851 16.13618486 16.72060993 16.1328125 19.4375 C16.13348552 21.31697604 16.13445553 23.19645199 16.13571167 25.07592773 C16.13718874 29.02035346 16.13503379 32.96475658 16.13037109 36.90917969 C16.1246738 41.97712503 16.12795276 47.04501742 16.13394356 52.11296082 C16.13754892 55.99556887 16.1364107 59.87816428 16.13381577 63.76077271 C16.13314643 65.62997443 16.13397516 67.49917728 16.13629532 69.36837769 C16.13882143 71.97608504 16.13498184 74.58370541 16.12939453 77.19140625 C16.13141876 77.97170197 16.13344299 78.75199768 16.13552856 79.55593872 C16.11426253 84.88573747 16.11426253 84.88573747 15 86 C12.46950598 86.07313567 9.96695163 86.09247527 7.4375 86.0625 C6.37112305 86.05573242 6.37112305 86.05573242 5.28320312 86.04882812 C3.52209987 86.03700864 1.76103964 86.01907263 0 86 C-0.33 84.68 -0.66 83.36 -1 82 C-2.0725 82.639375 -3.145 83.27875 -4.25 83.9375 C-11.71529016 88.38796144 -21.65377996 88.23428563 -29.9609375 86.31640625 C-39.83046398 82.65708951 -44.36906469 77.19228651 -48.8359375 67.8046875 C-52.30866371 59.43751496 -52.04915997 49.90307481 -49.09375 41.37890625 C-45.3213703 33.1739804 -39.33454634 27.44757697 -31 24 C-23.26735316 21.86259762 -15.62681606 21.16154095 -8 24 C-5.69 25.32 -3.38 26.64 -1 28 C-0.67 18.76 -0.34 9.52 0 0 Z M-30 41 C-33.74213579 46.02234014 -35.24218285 50.71377552 -35 57 C-34.02280226 63.22320663 -31.69257346 66.97913546 -26.81640625 70.90625 C-22.77287631 73.34106373 -18.63163805 73.31400936 -14 73 C-8.03328894 71.2204546 -4.31995159 68.18046137 -1 63 C0.75845077 57.61871693 0.54119687 52.59653076 -1.25 47.3125 C-4.07344645 41.96811923 -6.18881457 38.90627036 -12 37 C-19.04794647 36.10601269 -24.38654497 36.53214804 -30 41 Z " fill="#383838" transform="translate(426,36)"/>
<path d="M0 0 C0.99 0.99 1.98 1.98 3 3 C1.35 6.96 -0.3 10.92 -2 15 C-6.46762803 14.10647439 -9.86245008 12.80547633 -14 11 C-17.75088102 9.76362942 -21.44730235 9.7970383 -25.375 9.75 C-27.30472656 9.71132813 -27.30472656 9.71132813 -29.2734375 9.671875 C-33.24616994 10.02167534 -35.62085234 10.92907244 -39 13 C-40.79575476 15.34228882 -41 16.55643348 -41 19.5 C-39.60472073 22.98819818 -37.2467676 24.3683082 -34 26 C-30.79586447 27.05290902 -27.54231625 27.77779073 -24.25 28.5 C-2.68619881 33.58576537 -2.68619881 33.58576537 3.25 41.7109375 C6.49374857 47.22981528 7.00151533 52.72964314 6 59 C3.85034097 65.4398296 0.82484407 70.33250559 -5 74 C-17.97510365 80.1926631 -32.24809832 80.25424224 -45.9296875 76.11328125 C-50.89347208 74.20471362 -55.46275468 71.7618015 -60 69 C-59.57202798 63.29370646 -57.15654048 59.58921384 -54 55 C-53.23816406 55.40992188 -52.47632813 55.81984375 -51.69140625 56.2421875 C-38.97898268 62.87613638 -27.02838237 65.31642534 -13 61 C-11.69944059 55.12652187 -11.69944059 55.12652187 -13.375 49.625 C-19.01121953 46.13591172 -25.69284635 44.77414642 -32.09130859 43.2644043 C-41.69830284 40.96343862 -49.81716024 38.58210747 -56.0625 30.4375 C-59.38904213 24.41969289 -59.10067443 17.14291123 -57.37109375 10.6328125 C-54.70090115 4.47819818 -49.69433757 -0.37591923 -43.57421875 -3.06640625 C-41.06116297 -3.87543043 -38.58780771 -4.48162212 -36 -5 C-35.32710937 -5.15339844 -34.65421875 -5.30679688 -33.9609375 -5.46484375 C-23.34533671 -7.28875972 -9.31530682 -5.43070792 0 0 Z " fill="#246151" transform="translate(607,45)"/>
<path d="M0 0 C0.77843262 0.08556152 1.55686523 0.17112305 2.35888672 0.25927734 C9.25171218 1.14202525 15.04906608 3.18942218 21.25 6.375 C20.71148032 11.65249285 19.47656164 15.63145564 17.25 20.375 C14.92415401 19.84513101 12.72733919 19.19195845 10.47265625 18.40234375 C1.64073096 15.35647582 -7.88626697 13.16445278 -16.9375 16.6875 C-19.96206129 18.22933173 -19.96206129 18.22933173 -21.75 21.375 C-21.90196754 24.38403791 -21.90196754 24.38403791 -20.75 27.375 C-14.55651713 32.80769172 -6.21756677 33.74373593 1.59765625 35.5546875 C10.75353517 37.83048709 17.96336971 41.24172263 23.25 49.375 C25.93047517 55.40606912 26.14436527 61.3017193 24.0625 67.5 C21.0566362 74.54585506 16.98314839 78.20140757 10.09375 81.33203125 C-3.3582907 86.26567804 -19.3707648 84.85651243 -32.53515625 79.4609375 C-35.50866436 78.003027 -38.10986373 76.37294096 -40.75 74.375 C-40.21515599 69.02655992 -38.28309233 65.01703897 -35.75 60.375 C-32.70277749 61.51770844 -29.86242368 62.84074091 -27 64.375 C-18.57191034 68.58904483 -8.46861944 69.99709659 0.7578125 67.76953125 C4.74221033 66.49117457 4.74221033 66.49117457 7.25 63.375 C7.61893538 59.98079455 7.71243252 58.07870167 5.8125 55.1875 C0.40554774 51.36307035 -6.47092488 50.14365814 -12.84155273 48.63867188 C-23.00212593 46.20796202 -31.66718132 43.49922803 -37.75 34.375 C-40.1876827 29.4996346 -39.23522404 22.71246445 -38.75 17.375 C-36.83452697 11.8927841 -32.75123711 7.31690418 -27.75 4.375 C-18.53597178 0.19194424 -9.97932605 -1.13091821 0 0 Z " fill="#383838" transform="translate(222.75,39.625)"/>
<path d="M0 0 C1.051875 0.556875 2.10375 1.11375 3.1875 1.6875 C10.25743982 7.50056163 14.31385684 15.82471153 15.31640625 24.84765625 C15.6870918 34.11479496 13.6828889 42.16432957 7.6875 49.375 C-0.194899 57.55927811 -7.09735259 60.04060835 -18.4375 60.3125 C-28.13988178 60.16783228 -35.58966358 58.1137171 -42.78125 51.31640625 C-49.39226903 44.35522732 -52.18935469 37.54279133 -52.4375 27.9375 C-52.05733561 17.59479236 -49.67541304 11.78534353 -42.48046875 4.23828125 C-31.53450836 -5.6389397 -12.67534429 -8.1383083 0 0 Z M-31 14 C-34.74213579 19.02234014 -36.24218285 23.71377552 -36 30 C-35.02280226 36.22320663 -32.69257346 39.97913546 -27.81640625 43.90625 C-23.77287631 46.34106373 -19.63163805 46.31400936 -15 46 C-9.30123903 44.23141901 -6.37034073 41.91106791 -3 37 C-0.44017892 31.27087662 -0.23449783 26.33679609 -2.1875 20.375 C-4.78949469 15.52990644 -7.87488289 12.09244889 -13 10 C-20.03246031 9.07382605 -25.40582624 9.54749436 -31 14 Z " fill="#246151" transform="translate(746,63)"/>
<path d="M0 0 C1.47045898 2.72460937 1.47045898 2.72460937 2.99609375 6.34375 C3.2709108 6.98687134 3.54572784 7.62999268 3.82887268 8.29260254 C4.70865284 10.3575643 5.57331892 12.42846818 6.4375 14.5 C7.01526624 15.86501119 7.59403162 17.22959994 8.17382812 18.59375 C9.01851308 20.58200983 9.86148692 22.57086358 10.69760132 24.56274414 C12.49591089 28.84578278 14.37188875 33.08300742 16.35571289 37.28320312 C17 39 17 39 17 42 C17.66 42 18.32 42 19 42 C19.11174561 41.31010986 19.22349121 40.62021973 19.33862305 39.90942383 C20.09786454 36.56948993 21.26935485 33.61339844 22.58203125 30.44921875 C22.83748215 29.83158157 23.09293304 29.2139444 23.35612488 28.57759094 C23.89611799 27.27485821 24.43834217 25.9730483 24.98266602 24.67211914 C25.80466334 22.70624205 26.61870026 20.73721509 27.43164062 18.76757812 C28.46621967 16.2678637 29.5215204 13.78051307 30.58935547 11.29443359 C31.43407536 9.32166617 32.2543889 7.33776394 33.02392578 5.33447266 C33.93359375 3.14453125 33.93359375 3.14453125 36 0 C39.453125 -1 39.453125 -1 43.25 -1 C44.51328125 -1.020625 45.7765625 -1.04125 47.078125 -1.0625 C48.04234375 -1.041875 49.0065625 -1.02125 50 -1 C51.51899246 3.72680263 50.34489604 6.31109927 48.30859375 10.73046875 C48.01210938 11.38627426 47.715625 12.04207977 47.41015625 12.71775818 C46.43079996 14.87979213 45.43401049 17.03332627 44.4375 19.1875 C43.04422952 22.24777483 41.66160799 25.31278848 40.28125 28.37890625 C39.92590683 29.16581848 39.57056366 29.95273071 39.20445251 30.76348877 C36.71669266 36.30609803 34.3649128 41.89276116 32.09375 47.52734375 C31.7834938 48.2952977 31.47323761 49.06325165 31.15357971 49.85447693 C29.95299919 52.83402982 28.75585598 55.81462591 27.58126831 58.80453491 C19.51424827 79.33263292 19.51424827 79.33263292 10 84 C2.22255482 86.35903551 -5.58353042 86.85418756 -12.95703125 82.96875 C-14.625 81.875 -14.625 81.875 -17 80 C-16.42365861 75.24518354 -14.44931479 72.02951788 -12 68 C-11.20335937 68.25136719 -10.40671875 68.50273437 -9.5859375 68.76171875 C-3.01936592 70.77251892 -3.01936592 70.77251892 3.625 69.9375 C6.66265289 67.49930056 6.66265289 67.49930056 8 64 C7.55405484 57.9727498 5.59171652 53.08623797 3.17578125 47.5859375 C2.79189743 46.69444 2.40801361 45.8029425 2.01249695 44.88442993 C0.78705873 42.04446249 -0.45019588 39.20981463 -1.6875 36.375 C-2.50009003 34.49380952 -3.31194581 32.6123017 -4.12304688 30.73046875 C-7.95952134 21.85343848 -11.848271 13.01556591 -16.01489258 4.28759766 C-17 2 -17 2 -17 0 C-14.72979256 -0.19493195 -12.45879711 -0.38070418 -10.1875 -0.5625 C-8.92292969 -0.66691406 -7.65835937 -0.77132812 -6.35546875 -0.87890625 C-3 -1 -3 -1 0 0 Z " fill="#393939" transform="translate(464,60)"/>
<path d="M0 0 C0.01458252 1.15000488 0.02916504 2.30000977 0.04418945 3.48486328 C0.10233762 7.76788805 0.17956924 12.05039616 0.26245117 16.33300781 C0.29562296 18.18350819 0.32367887 20.03410786 0.34643555 21.88476562 C0.3801245 24.55121003 0.4324466 27.2167509 0.48828125 29.8828125 C0.49467117 30.70492218 0.5010611 31.52703186 0.50764465 32.37405396 C0.6321748 37.28347504 1.25551466 40.76407851 4 45 C8.89170296 48.26113531 14.28820256 47.68064417 20 47 C23.714309 45.40325831 25.5383039 43.09408474 27.11865234 39.34912109 C28.16095869 35.38835698 28.35195393 31.6065513 28.4140625 27.5390625 C28.43342865 26.74849457 28.4527948 25.95792664 28.4727478 25.1434021 C28.53216053 22.63737517 28.57877427 20.13130135 28.625 17.625 C28.66321513 15.91794957 28.70226889 14.21091769 28.7421875 12.50390625 C28.83783011 8.33608956 28.92200115 4.1681827 29 0 C32.25469015 -1.08489672 34.70543209 -1.13323992 38.125 -1.125 C39.20007813 -1.12757812 40.27515625 -1.13015625 41.3828125 -1.1328125 C44 -1 44 -1 45 0 C45.09396057 1.93306498 45.11743517 3.86958838 45.11352539 5.80493164 C45.11344986 7.04614273 45.11337433 8.28735382 45.11329651 9.56617737 C45.10818911 10.9308374 45.1029731 12.29549702 45.09765625 13.66015625 C45.095792 15.04878183 45.09436813 16.43740807 45.09336853 17.82603455 C45.08954387 21.48721115 45.07971403 25.1483483 45.06866455 28.80950928 C45.05844932 32.54292263 45.05387067 36.27634234 45.04882812 40.00976562 C45.0380917 47.33986385 45.02049534 54.66992138 45 62 C40.05 62 35.1 62 30 62 C29.67 60.35 29.34 58.7 29 57 C27.9790625 57.928125 27.9790625 57.928125 26.9375 58.875 C20.02428239 63.87605104 12.26538852 63.65042404 4 63 C-2.58382793 61.67744219 -7.54289713 59.13474883 -11.76782227 53.74462891 C-17.39960861 43.72824662 -16.92705993 33.59143186 -16.9375 22.375 C-16.96425335 20.42314056 -16.99353079 18.47131401 -17.02539062 16.51953125 C-17.20510065 2.41020129 -17.20510065 2.41020129 -16 0 C-13.1640625 -0.44921875 -13.1640625 -0.44921875 -9.625 -0.6875 C-8.46226562 -0.77386719 -7.29953125 -0.86023437 -6.1015625 -0.94921875 C-3 -1 -3 -1 0 0 Z " fill="#3A3A3A" transform="translate(320,60)"/>
<path d="M0 0 C1.27875 0.00257812 2.5575 0.00515625 3.875 0.0078125 C5.15375 0.00523438 6.4325 0.00265625 7.75 0 C10.875 0.1328125 10.875 0.1328125 11.875 1.1328125 C12.01926614 5.80126478 11.91708415 10.46147203 11.875 15.1328125 C17.485 15.1328125 23.095 15.1328125 28.875 15.1328125 C28.875 19.4228125 28.875 23.7128125 28.875 28.1328125 C23.265 28.1328125 17.655 28.1328125 11.875 28.1328125 C11.92609664 32.47602652 11.98906994 36.81568073 12.08251953 41.15771484 C12.11070088 42.63383446 12.13192966 44.11010419 12.14599609 45.58642578 C12.16746698 47.71204307 12.21413043 49.83586129 12.265625 51.9609375 C12.28657227 53.2387207 12.30751953 54.51650391 12.32910156 55.83300781 C12.9580243 59.63467134 13.84098285 60.83813294 16.875 63.1328125 C18.86129159 63.64738552 18.86129159 63.64738552 20.875 63.4453125 C21.535 63.42082031 22.195 63.39632812 22.875 63.37109375 C24.93961494 63.12511424 26.87164099 62.68284187 28.875 62.1328125 C29.55095315 63.54507176 30.21540059 64.96284155 30.875 66.3828125 C31.24625 67.17171875 31.6175 67.960625 32 68.7734375 C32.875 71.1328125 32.875 71.1328125 32.875 75.1328125 C24.855834 78.90653768 15.92780976 79.72916106 7.375 77.0078125 C2.37247729 74.32788962 -1.14790163 70.56983301 -3.125 65.1328125 C-3.94138699 60.33805927 -4.24351402 55.746579 -4.22265625 50.88671875 C-4.2212413 50.23074203 -4.21982635 49.57476532 -4.21836853 48.89891052 C-4.21283031 46.83099548 -4.20029002 44.76319408 -4.1875 42.6953125 C-4.18247699 41.28190262 -4.1779155 39.86849102 -4.17382812 38.45507812 C-4.16288126 35.01428682 -4.14566038 31.57356078 -4.125 28.1328125 C-4.76308594 28.14441406 -5.40117188 28.15601562 -6.05859375 28.16796875 C-7.29802734 28.18150391 -7.29802734 28.18150391 -8.5625 28.1953125 C-9.79806641 28.21271484 -9.79806641 28.21271484 -11.05859375 28.23046875 C-13.125 28.1328125 -13.125 28.1328125 -14.125 27.1328125 C-14.19744053 25.11317051 -14.20877188 23.09114126 -14.1875 21.0703125 C-14.17847656 19.96558594 -14.16945313 18.86085938 -14.16015625 17.72265625 C-14.14855469 16.86800781 -14.13695312 16.01335938 -14.125 15.1328125 C-10.825 15.1328125 -7.525 15.1328125 -4.125 15.1328125 C-4.13660156 14.13378906 -4.14820313 13.13476562 -4.16015625 12.10546875 C-4.16917969 10.81511719 -4.17820312 9.52476563 -4.1875 8.1953125 C-4.19910156 6.90753906 -4.21070313 5.61976562 -4.22265625 4.29296875 C-4.09537209 0.17405331 -4.09537209 0.17405331 0 0 Z " fill="#246051" transform="translate(777.125,44.8671875)"/>
<path d="M0 0 C4.95 0 9.9 0 15 0 C15.495 6.93 15.495 6.93 16 14 C17.14339844 14.06058594 18.28679687 14.12117188 19.46484375 14.18359375 C20.95574305 14.26798428 22.44662775 14.35263302 23.9375 14.4375 C25.06961914 14.49647461 25.06961914 14.49647461 26.22460938 14.55664062 C31.88671875 14.88671875 31.88671875 14.88671875 33 16 C33.09851171 17.83115883 33.12972629 19.66619933 33.125 21.5 C33.12886719 23.00046875 33.12886719 23.00046875 33.1328125 24.53125 C33 27 33 27 32 28 C29.13732433 28.07325168 26.299281 28.09238205 23.4375 28.0625 C22.63119141 28.05798828 21.82488281 28.05347656 20.99414062 28.04882812 C18.99606244 28.03700518 16.99802217 28.01906914 15 28 C15.09391833 32.03887005 15.20009492 36.07721776 15.31738281 40.11547852 C15.35554288 41.48778581 15.39041796 42.86018871 15.421875 44.23266602 C15.46780682 46.2113229 15.52673637 48.18966442 15.5859375 50.16796875 C15.63306885 51.95110474 15.63306885 51.95110474 15.68115234 53.77026367 C15.99290181 56.92809961 16.55247196 59.18757713 18 62 C20.35300475 63.17650238 21.76033709 63.10158964 24.375 63.0625 C25.14585937 63.05347656 25.91671875 63.04445312 26.7109375 63.03515625 C27.46632813 63.02355469 28.22171875 63.01195312 29 63 C30.32 63 31.64 63 33 63 C33.72750788 64.40691607 34.43140353 65.82606022 35.125 67.25 C35.51945312 68.03890625 35.91390625 68.8278125 36.3203125 69.640625 C37 72 37 72 36.296875 74.21875 C34.6370563 76.49850098 32.95454128 77.05816858 30.25 77.68359375 C22.39588898 78.78807811 14.11670932 78.89377334 7 75 C3.0773486 71.74073818 1.29485771 67.86090586 0 63 C-0.16237778 60.21513377 -0.23437565 57.53777516 -0.1953125 54.7578125 C-0.1924826 53.98944061 -0.18965271 53.22106873 -0.18673706 52.42941284 C-0.17561311 49.99444479 -0.1505236 47.55985538 -0.125 45.125 C-0.11496011 43.46615118 -0.10583603 41.80729654 -0.09765625 40.1484375 C-0.07569937 36.09881421 -0.04122406 32.04947113 0 28 C-3.3 28 -6.6 28 -10 28 C-11.29676812 23.38926889 -10.71109139 19.66159911 -10 15 C-5.545 14.505 -5.545 14.505 -1 14 C-1.01160156 13.15695313 -1.02320313 12.31390625 -1.03515625 11.4453125 C-1.04417969 10.34960938 -1.05320312 9.25390625 -1.0625 8.125 C-1.07410156 7.03445312 -1.08570313 5.94390625 -1.09765625 4.8203125 C-1 2 -1 2 0 0 Z " fill="#393939" transform="translate(260,45)"/>
<path d="M0 0 C4.16893495 3.36795902 5.6696561 7.05617352 7 12.1875 C7.20316267 18.07921745 5.53652804 22.09577671 1.8125 26.625 C-2.75311976 30.34120213 -5.93684807 32.11501384 -11.875 31.75 C-17.85612792 30.90581678 -21.29433926 28.69220467 -25.1875 24.0625 C-28.06979707 18.51140934 -28.46507496 14.04672695 -26.8125 8.125 C-24.68052751 2.50434527 -21.45518053 0.07392159 -16.0625 -2.5625 C-10.21814349 -3.70845226 -5.0604988 -3.31660598 0 0 Z " fill="#246353" transform="translate(90.875,15.1875)"/>
<path d="M0 0 C6.16273338 0.46823002 10.62090786 1.87878164 16.0625 4.75 C16.73087891 5.08515625 17.39925781 5.4203125 18.08789062 5.765625 C20.10170124 6.79895056 22.05987098 7.83206494 24 9 C24.56494423 9.30740584 25.12988846 9.61481169 25.71195221 9.93153286 C27.71696117 11.14956732 29.35703567 12.32049318 31 14 C31.69182304 17.08382751 31.89663775 19.11529855 31.79467773 22.18676758 C31.79621101 23.40218231 31.79621101 23.40218231 31.79777527 24.64215088 C31.79291189 27.3109628 31.73853702 29.97632001 31.68359375 32.64453125 C31.67053293 34.49824657 31.66057104 36.3519861 31.65357971 38.20573425 C31.6268919 43.0774951 31.5581638 47.94778776 31.48065186 52.81896973 C31.4089579 57.79252257 31.3770551 62.7663134 31.34179688 67.74023438 C31.26679315 77.49413357 31.14737068 87.24694455 31 97 C26.97986637 95.44439603 23.39881711 93.57732004 19.6875 91.375 C18.61886719 90.74335938 17.55023438 90.11171875 16.44921875 89.4609375 C15.64097656 88.97882813 14.83273438 88.49671875 14 88 C14.99 87.01 14.99 87.01 16 86 C17.23047495 86.60149768 18.45930984 87.2063507 19.6875 87.8125 C20.37199219 88.14894531 21.05648437 88.48539062 21.76171875 88.83203125 C24.23841623 90.12440917 26.60986436 91.55484196 29 93 C28.98513416 83.02927346 28.94358163 73.05905011 28.86790943 63.08858871 C28.83361135 58.45889552 28.80852511 53.82953329 28.80444336 49.19970703 C28.80016639 44.73198588 28.77175435 40.26501167 28.72656822 35.7975235 C28.71357384 34.09272868 28.70929242 32.38784455 28.71384621 30.68300629 C28.71873878 28.29533644 28.69272411 25.90986107 28.65942383 23.52246094 C28.67236229 22.46402229 28.67236229 22.46402229 28.68556213 21.38420105 C28.59836961 17.65758225 28.27100508 16.26853852 25.57911682 13.60115051 C23.4918405 12.30534122 21.46038557 11.0489643 19.2578125 9.96484375 C18.58363281 9.63033203 17.90945312 9.29582031 17.21484375 8.95117188 C16.52519531 8.61666016 15.83554687 8.28214844 15.125 7.9375 C14.44308594 7.59912109 13.76117188 7.26074219 13.05859375 6.91210938 C8.76147491 4.79628991 4.41736273 2.85114026 0 1 C0 0.67 0 0.34 0 0 Z " fill="#21574A" transform="translate(45,53)"/>
<path d="M0 0 C1.74292177 1.74292177 1.11980303 4.00623495 1.12442017 6.32824707 C1.12082489 7.09141235 1.11722961 7.85457764 1.11352539 8.64086914 C1.11367142 9.44080795 1.11381744 10.24074677 1.1139679 11.06492615 C1.11326855 13.72169665 1.10547518 16.37839793 1.09765625 19.03515625 C1.09579215 20.87218691 1.09436821 22.70921806 1.09336853 24.54624939 C1.08954275 29.39109662 1.07971196 34.23591408 1.06866455 39.08074951 C1.05845172 44.02062578 1.05387119 48.96050685 1.04882812 53.90039062 C1.03808974 63.60027353 1.0210126 73.30013429 1 83 C-3.07787895 83.89445704 -6.81998005 84.08196118 -11 84 C-11.33 83.34 -11.66 82.68 -12 82 C-8.32238669 80.82316374 -4.83330292 80.96421654 -1 81 C-1.10733731 71.10803011 -1.21993676 61.21613568 -1.33933926 51.32430363 C-1.39460965 46.73160822 -1.44803609 42.1389065 -1.49731445 37.54614258 C-1.54489747 33.11760669 -1.59723781 28.68915071 -1.65294075 24.26070976 C-1.67339187 22.56736669 -1.6921003 20.87400169 -1.70907402 19.18062019 C-1.73305728 16.81702837 -1.76311966 14.45358896 -1.79467773 12.09008789 C-1.8004332 11.38302704 -1.80618866 10.67596619 -1.81211853 9.94747925 C-1.58838444 6.69225706 -1.58838444 6.69225706 -3 4 C-4.34747084 3.76924918 -5.70377565 3.58846937 -7.0625 3.4375 C-8.361875 3.293125 -9.66125 3.14875 -11 3 C-4.53488372 -0.23255814 -4.53488372 -0.23255814 0 0 Z " fill="#1F5548" transform="translate(146,46)"/>
<path d="M0 0 C0.66 0 1.32 0 2 0 C1.67 26.73 1.34 53.46 1 81 C2.65 81 4.3 81 6 81 C6 81.99 6 82.98 6 84 C3.69 83.67 1.38 83.34 -1 83 C-1.02312328 72.32580302 -1.04091501 61.65161194 -1.05181217 50.97739506 C-1.05704103 46.02146078 -1.06413874 41.06554358 -1.07543945 36.10961914 C-1.08626822 31.33101164 -1.09227681 26.55242062 -1.09487724 21.7738018 C-1.09673151 19.94646381 -1.10035216 18.11912676 -1.10573006 16.29179573 C-1.11294036 13.74146671 -1.11399095 11.19120663 -1.11352539 8.64086914 C-1.11712067 7.87770386 -1.12071594 7.11453857 -1.12442017 6.32824707 C-1.11405216 1.11405216 -1.11405216 1.11405216 0 0 Z " fill="#104E3E" transform="translate(15,46)"/>
<path d="M0 0 C1.18851562 0.00902344 2.37703125 0.01804688 3.6015625 0.02734375 C4.51679688 0.03894531 5.43203125 0.05054688 6.375 0.0625 C7.44427082 3.27031246 7.46134483 5.45186399 7.39672852 8.8190918 C7.36658409 10.59058846 7.36658409 10.59058846 7.33583069 12.39787292 C7.29527809 14.31047661 7.29527809 14.31047661 7.25390625 16.26171875 C7.23029526 17.56704056 7.20668427 18.87236237 7.18235779 20.21723938 C7.11958225 23.68447729 7.05049728 27.15156188 6.98010254 30.61865234 C6.90935999 34.15780669 6.84457849 37.69706958 6.77929688 41.23632812 C6.6503688 48.17850339 6.51477559 55.12053491 6.375 62.0625 C6.045 62.0625 5.715 62.0625 5.375 62.0625 C5.375 42.5925 5.375 23.1225 5.375 3.0625 C1.415 3.0625 -2.545 3.0625 -6.625 3.0625 C-6.625 14.6125 -6.625 26.1625 -6.625 38.0625 C-7.615 37.7325 -8.605 37.4025 -9.625 37.0625 C-9.295 25.1825 -8.965 13.3025 -8.625 1.0625 C-5.74084117 -0.37957941 -3.20778472 -0.03144887 0 0 Z " fill="#2D2D2D" transform="translate(357.625,58.9375)"/>
<path d="M0 0 C0.33 0 0.66 0 1 0 C1 19.8 1 39.6 1 60 C-3.95 60 -8.9 60 -14 60 C-14.33 58.35 -14.66 56.7 -15 55 C-16.65 56.32 -18.3 57.64 -20 59 C-20.99 58.34 -21.98 57.68 -23 57 C-17.375 53.125 -17.375 53.125 -14 52 C-13.34 52.33 -12.68 52.66 -12 53 C-12 54.65 -12 56.3 -12 58 C-8.37 58 -4.74 58 -1 58 C-0.67 38.86 -0.34 19.72 0 0 Z " fill="#363636" transform="translate(364,62)"/>
<path d="M0 0 C4.88925715 1.39693061 7.05441957 3.93987562 10 8 C12.96924291 14.01115959 12.76257294 20.45130664 12 27 C9.875 30.0625 9.875 30.0625 7 32 C5.92994999 32.90784194 4.8674482 33.82465232 3.8125 34.75 C-0.06610916 37.85288733 -1.73480437 38.11936274 -6.625 38.0625 C-7.62789062 38.05347656 -8.63078125 38.04445312 -9.6640625 38.03515625 C-10.43492187 38.02355469 -11.20578125 38.01195312 -12 38 C-8.97007603 35.98005069 -7.12241723 35.49739327 -3.625 34.75 C1.91908531 33.29257203 4.02894969 31.88785695 7 27 C9.55982108 21.27087662 9.76550217 16.33679609 7.8125 10.375 C5.9360471 6.88091528 3.9002 4.67123685 1 2 C0.67 1.34 0.34 0.68 0 0 Z " fill="#215649" transform="translate(735,73)"/>
<path d="M0 0 C0 0.66 0 1.32 0 2 C-4.62 2 -9.24 2 -14 2 C-14 14.87 -14 27.74 -14 41 C-14.66 41 -15.32 41 -16 41 C-16.1674126 35.48259702 -16.32799286 29.96505413 -16.48217773 24.44726562 C-16.53562556 22.56928117 -16.59095705 20.69134937 -16.64819336 18.81347656 C-16.7300268 16.11795404 -16.80513683 13.42231625 -16.87890625 10.7265625 C-16.90594131 9.88380768 -16.93297638 9.04105286 -16.96083069 8.17276001 C-17.11387171 2.22774341 -17.11387171 2.22774341 -16 0 C-13.1640625 -0.44921875 -13.1640625 -0.44921875 -9.625 -0.6875 C-8.46226562 -0.77386719 -7.29953125 -0.86023437 -6.1015625 -0.94921875 C-3 -1 -3 -1 0 0 Z " fill="#2C2C2C" transform="translate(320,60)"/>
<path d="M0 0 C6.68050165 -0.61602987 10.99617554 -0.07768372 16.6015625 3.7109375 C17.06304688 4.13632813 17.52453125 4.56171875 18 5 C18 5.66 18 6.32 18 7 C18.66 7 19.32 7 20 7 C23.7676242 13.59334236 23.94759932 19.55457681 23 27 C21.72113168 30.05507432 20.16930586 32.50529826 18 35 C17.67 34.01 17.34 33.02 17 32 C17.474375 31.195625 17.94875 30.39125 18.4375 29.5625 C20.89804855 23.95244931 21.16819113 17.70257189 19.30859375 11.80859375 C17.10428714 7.53832614 14.27030129 5.05607099 10 3 C6.66996756 2.41176074 3.37692115 2.13347514 0 2 C0 1.34 0 0.68 0 0 Z " fill="#17493D" transform="translate(651,71)"/>
<path d="M0 0 C2.81288705 0.14019692 5.62516885 0.28687955 8.4375 0.4375 C9.23994141 0.47681641 10.04238281 0.51613281 10.86914062 0.55664062 C16.88671875 0.88671875 16.88671875 0.88671875 18 2 C18.09851171 3.83115883 18.12972629 5.66619933 18.125 7.5 C18.12886719 9.00046875 18.12886719 9.00046875 18.1328125 10.53125 C18 13 18 13 17 14 C14.13732433 14.07325168 11.299281 14.09238205 8.4375 14.0625 C7.63119141 14.05798828 6.82488281 14.05347656 5.99414062 14.04882812 C3.99606244 14.03700518 1.99802217 14.01906914 0 14 C0 13.34 0 12.68 0 12 C4.95 12 9.9 12 15 12 C15 9.03 15 6.06 15 3 C10.05 3 5.1 3 0 3 C0 2.01 0 1.02 0 0 Z " fill="#262727" transform="translate(275,59)"/>
<path d="M0 0 C0.74886475 0.00523682 1.49772949 0.01047363 2.26928711 0.01586914 C3.07817383 0.0190918 3.88706055 0.02231445 4.72045898 0.02563477 C5.5705957 0.03401367 6.42073242 0.04239258 7.29663086 0.05102539 C8.15063477 0.05553711 9.00463867 0.06004883 9.88452148 0.06469727 C12.00108749 0.07652166 14.11761771 0.0944577 16.23413086 0.11352539 C16.23413086 0.77352539 16.23413086 1.43352539 16.23413086 2.11352539 C10.62413086 2.11352539 5.01413086 2.11352539 -0.76586914 2.11352539 C-0.76586914 12.01352539 -0.76586914 21.91352539 -0.76586914 32.11352539 C-1.42586914 32.11352539 -2.08586914 32.11352539 -2.76586914 32.11352539 C-2.79052418 27.71696366 -2.80870756 23.32043819 -2.82080078 18.92382812 C-2.82584035 17.42707621 -2.83267201 15.93032923 -2.84130859 14.43359375 C-2.85339073 12.28652732 -2.85910105 10.13952577 -2.86352539 7.99243164 C-2.86876221 6.69893799 -2.87399902 5.40544434 -2.87939453 4.07275391 C-2.72988353 0.1755006 -2.72988353 0.1755006 0 0 Z " fill="#11493B" transform="translate(789.765869140625,70.886474609375)"/>
<path d="M0 0 C0.76183594 0.40992187 1.52367187 0.81984375 2.30859375 1.2421875 C13.73448743 7.20476373 22.13168192 8.32948752 35 8 C34.67 8.99 34.34 9.98 34 11 C15.65957447 11.57446809 15.65957447 11.57446809 7 8 C7 7.34 7 6.68 7 6 C4.09926819 5.32198966 4.09926819 5.32198966 1 5 C0.34 5.66 -0.32 6.32 -1 7 C-1.625 4.625 -1.625 4.625 -2 2 C-1.34 1.34 -0.68 0.68 0 0 Z " fill="#1B4B40" transform="translate(553,100)"/>
<path d="M0 0 C-1.249385 3.74815499 -2.89423471 4.22675643 -6.30859375 5.9375 C-8.32419272 7.04265597 -8.32419272 7.04265597 -10 10 C-10.32839637 12.56575252 -10.32839637 12.56575252 -10.31884766 15.48120117 C-10.34865219 17.16260445 -10.34865219 17.16260445 -10.37905884 18.87797546 C-10.39061005 20.08742325 -10.40216125 21.29687103 -10.4140625 22.54296875 C-10.43342865 23.78170242 -10.4527948 25.0204361 -10.4727478 26.29670715 C-10.52243407 29.58625175 -10.56369282 32.87576125 -10.60089111 36.16546631 C-10.64093312 39.52382525 -10.69202451 42.88201406 -10.7421875 46.24023438 C-10.83832153 52.82671358 -10.92334848 59.41326683 -11 66 C-11.33 66 -11.66 66 -12 66 C-12.38658099 58.43035539 -12.71210679 50.86013467 -12.96108532 43.28475094 C-13.07861908 39.76627598 -13.216609 36.25117024 -13.40258789 32.7355957 C-13.61580155 28.68778342 -13.73774974 24.64156607 -13.85546875 20.58984375 C-13.93411667 19.33541977 -14.01276459 18.08099579 -14.09379578 16.78855896 C-14.15714932 13.20124293 -14.0983093 10.41939175 -13 7 C-9.57654788 3.63430597 -5.01312202 0 0 0 Z " fill="#24584B" transform="translate(98,60)"/>
<path d="M0 0 C2.84465075 3.65288021 4.45990042 6.29341799 5 11 C2.80753649 15.86328269 0.12275444 20.05895633 -5 22 C-10.20663198 22.48209555 -13.58245104 21.83985291 -18 19 C-18.33 18.01 -18.66 17.02 -19 16 C-18.20335937 16.25136719 -17.40671875 16.50273437 -16.5859375 16.76171875 C-10.01936592 18.77251892 -10.01936592 18.77251892 -3.375 17.9375 C-0.89203564 15.91192381 -0.07993652 14.95963736 1 12 C1.02666098 8.94183002 1.02666098 8.94183002 0.625 5.75 C0.51414062 4.67234375 0.40328125 3.5946875 0.2890625 2.484375 C0.19367188 1.66453125 0.09828125 0.8446875 0 0 Z " fill="#282828" transform="translate(471,112)"/>
<path d="M0 0 C0.66 0 1.32 0 2 0 C2 0.66 2 1.32 2 2 C3.32 2.66 4.64 3.32 6 4 C6 4.66 6 5.32 6 6 C3.525 5.01 3.525 5.01 1 4 C1 12.91 1 21.82 1 31 C-0.65 31.33 -2.3 31.66 -4 32 C-3.505 30.515 -3.505 30.515 -3 29 C-2.34 29 -1.68 29 -1 29 C-1.00523682 28.15703369 -1.01047363 27.31406738 -1.01586914 26.44555664 C-1.03287826 23.32772064 -1.04543406 20.20990823 -1.05493164 17.09204102 C-1.05997057 15.74079614 -1.06680177 14.38955674 -1.07543945 13.03833008 C-1.08752419 11.09979566 -1.09269828 9.161222 -1.09765625 7.22265625 C-1.10289307 6.05484619 -1.10812988 4.88703613 -1.11352539 3.68383789 C-1 1 -1 1 0 0 Z " fill="#205648" transform="translate(637,113)"/>
<path d="M0 0 C12.46239004 0.90635564 25.20327639 3.52727135 36 10 C36 10.66 36 11.32 36 12 C34.865625 11.608125 33.73125 11.21625 32.5625 10.8125 C21.55265359 7.15994432 10.50715317 3.66518199 -1 2 C-0.67 1.34 -0.34 0.68 0 0 Z " fill="#174F42" transform="translate(23,128)"/>
<path d="M0 0 C6.16273338 0.46823002 10.62090786 1.87878164 16.0625 4.75 C16.73087891 5.08515625 17.39925781 5.4203125 18.08789062 5.765625 C22.70965535 8.13714276 26.83299365 10.90048423 31 14 C30.67 16.31 30.34 18.62 30 21 C29.67 21 29.34 21 29 21 C28.855625 20.13375 28.71125 19.2675 28.5625 18.375 C24.05364267 8.63586817 9.31197049 4.95783859 0 1 C0 0.67 0 0.34 0 0 Z " fill="#1A4C40" transform="translate(45,53)"/>
<path d="M0 0 C2.09447272 1.69013436 3.5154992 3.41412621 5.0234375 5.6328125 C2.0234375 5.6328125 2.0234375 5.6328125 -0.9765625 3.6328125 C-0.9765625 2.9728125 -0.9765625 2.3128125 -0.9765625 1.6328125 C-9.1540922 -1.94485674 -17.15547855 -2.80851885 -25.9765625 -3.3671875 C-25.9765625 -4.0271875 -25.9765625 -4.6871875 -25.9765625 -5.3671875 C-16.72492105 -7.71002461 -7.85547881 -4.98470582 0 0 Z " fill="#1B5245" transform="translate(676.9765625,64.3671875)"/>
<path d="M0 0 C4.62 0 9.24 0 14 0 C14.66 1.32 15.32 2.64 16 4 C17.60875 3.01 17.60875 3.01 19.25 2 C22.30980686 0.11704193 23.1335864 0 27 0 C27 0.66 27 1.32 27 2 C26.44570313 2.25394531 25.89140625 2.50789063 25.3203125 2.76953125 C24.59585938 3.11371094 23.87140625 3.45789062 23.125 3.8125 C22.40570312 4.14894531 21.68640625 4.48539062 20.9453125 4.83203125 C18.69457194 5.99467097 18.69457194 5.99467097 17 9 C16.34 9 15.68 9 15 9 C14.67 6.69 14.34 4.38 14 2 C9.38 2 4.76 2 0 2 C0 1.34 0 0.68 0 0 Z " fill="#194E40" transform="translate(623,60)"/>
<path d="M0 0 C0.99 0.33 1.98 0.66 3 1 C2.67 21.13 2.34 41.26 2 62 C1.67 62 1.34 62 1 62 C0.67 41.54 0.34 21.08 0 0 Z " fill="#0A0A0A" transform="translate(362,59)"/>
<path d="M0 0 C0.66 0 1.32 0 2 0 C1.46608326 4.53829228 -0.19666732 7.4179638 -3 11 C-5.75 12.875 -5.75 12.875 -8 14 C-8.33 13.34 -8.66 12.68 -9 12 C-8.51789063 11.63648437 -8.03578125 11.27296875 -7.5390625 10.8984375 C-3.42223912 7.62178216 -1.14562638 5.34625645 0 0 Z M-21 13 C-17.04 13 -13.08 13 -9 13 C-9.66 14.32 -10.32 15.64 -11 17 C-14.3 16.67 -17.6 16.34 -21 16 C-21 15.01 -21 14.02 -21 13 Z " fill="#232323" transform="translate(425,95)"/>
<path d="M0 0 C1.53515625 1.2265625 1.53515625 1.2265625 3 3 C2.99198282 7.28117459 1.49233963 11.14787371 -0.625 14.8125 C-3.74724143 17.68824869 -7.13036187 19.31877373 -11 21 C-11.33 20.34 -11.66 19.68 -12 19 C-12.66 18.67 -13.32 18.34 -14 18 C-12.9275 17.731875 -11.855 17.46375 -10.75 17.1875 C-6.3930631 15.81944114 -6.3930631 15.81944114 -3 13 C-1.17441263 8.77232398 -0.54652122 4.55434348 0 0 Z " fill="#1A4E3F" transform="translate(95,26)"/>
<path d="M0 0 C6.625 -0.25 6.625 -0.25 10 2 C7.36 2 4.72 2 2 2 C2 4.97 2 7.94 2 11 C4.64 11 7.28 11 10 11 C10 11.66 10 12.32 10 13 C6.7 13 3.4 13 0 13 C-1.29676812 8.38926889 -0.71109139 4.66159911 0 0 Z " fill="#1C1C1C" transform="translate(250,60)"/>
<path d="M0 0 C2.97 0 5.94 0 9 0 C9.33 0.66 9.66 1.32 10 2 C7.36 2 4.72 2 2 2 C2 4.97 2 7.94 2 11 C4.97 11 7.94 11 11 11 C11 11.66 11 12.32 11 13 C9.35425434 13.02688151 7.70838587 13.04634123 6.0625 13.0625 C5.14597656 13.07410156 4.22945312 13.08570312 3.28515625 13.09765625 C1 13 1 13 0 12 C-0.07244053 9.98035801 -0.08377188 7.95832876 -0.0625 5.9375 C-0.05347656 4.83277344 -0.04445313 3.72804687 -0.03515625 2.58984375 C-0.02355469 1.73519531 -0.01195312 0.88054688 0 0 Z " fill="#0F4133" transform="translate(763,60)"/>
<path d="M0 0 C-3.48023211 1.87397114 -7.08326867 3.14055172 -10.8125 4.4375 C-15.6295261 6.13526311 -20.34765467 7.89536759 -25 10 C-25 9.01 -25 8.02 -25 7 C-22.34017097 5.81516707 -19.67389134 4.65230925 -17 3.5 C-16.25621094 3.16613281 -15.51242188 2.83226562 -14.74609375 2.48828125 C-9.56100338 0.27898187 -5.63200996 -0.35840063 0 0 Z " fill="#1D4F40" transform="translate(124,51)"/>
<path d="M0 0 C0.969375 0.66 1.93875 1.32 2.9375 2 C9.645901 5.45768763 17.67589661 4.29962241 25 4 C25 4.66 25 5.32 25 6 C16.59277031 8.32540396 9.86721445 8.23891865 1.875 4.5625 C1.25625 4.046875 0.6375 3.53125 0 3 C0 2.01 0 1.02 0 0 Z " fill="#1D1D1D" transform="translate(448,138)"/>
<path d="M0 0 C0 0.66 0 1.32 0 2 C-3.39488938 2.98245973 -6.79106929 3.96038333 -10.1875 4.9375 C-11.14720703 5.21529297 -12.10691406 5.49308594 -13.09570312 5.77929688 C-14.02705078 6.04677734 -14.95839844 6.31425781 -15.91796875 6.58984375 C-16.77156982 6.83597412 -17.6251709 7.08210449 -18.50463867 7.33569336 C-20.98946496 7.9971954 -23.47382332 8.52325092 -26 9 C-26 8.34 -26 7.68 -26 7 C-17.76501335 3.41085759 -9.07843118 0 0 0 Z " fill="#124839" transform="translate(132,129)"/>
<path d="M0 0 C2.0625 0.4375 2.0625 0.4375 4 1 C4 2.65 4 4.3 4 6 C7.63 6 11.26 6 15 6 C11.68629 8.20914 10.6553979 8.22481553 6.8125 8.125 C5.91144531 8.10695313 5.01039063 8.08890625 4.08203125 8.0703125 C3.39496094 8.04710938 2.70789063 8.02390625 2 8 C1.67 6.35 1.34 4.7 1 3 C-0.65 4.32 -2.3 5.64 -4 7 C-4.99 6.34 -5.98 5.68 -7 5 C-6.030625 4.360625 -5.06125 3.72125 -4.0625 3.0625 C-1.23963731 1.3034741 -1.23963731 1.3034741 0 0 Z " fill="#242424" transform="translate(348,114)"/>
<path d="M0 0 C0.99 0.33 1.98 0.66 3 1 C3.02686553 2.97909398 3.04633375 4.95828971 3.0625 6.9375 C3.07410156 8.03964844 3.08570313 9.14179687 3.09765625 10.27734375 C3 13 3 13 2 14 C1.76346477 16.52596259 1.57826308 19.03107207 1.4375 21.5625 C1.39431641 22.27341797 1.35113281 22.98433594 1.30664062 23.71679688 C1.20028223 25.47761912 1.09961154 27.2387832 1 29 C0.67 29 0.34 29 0 29 C0 19.43 0 9.86 0 0 Z " fill="#126862" transform="translate(622,61)"/>
<path d="M0 0 C0.99 0 1.98 0 3 0 C3.08636719 0.65226562 3.17273438 1.30453125 3.26171875 1.9765625 C4.25173166 8.13462442 5.39523045 11.71649344 10 16 C12.6514482 17.39819512 12.6514482 17.39819512 15 18 C15 18.66 15 19.32 15 20 C11.87258646 19.92553777 9.71564656 19.63837017 7.3359375 17.515625 C2.37784228 11.80038224 0.74677008 7.46770082 0 0 Z " fill="#1D4C40" transform="translate(773,102)"/>
<path d="M0 0 C-0.33 0.66 -0.66 1.32 -1 2 C-1.99 2 -2.98 2 -4 2 C-4 1.34 -4 0.68 -4 0 C-10.27 -0.66 -16.54 -1.32 -23 -2 C-23 -2.66 -23 -3.32 -23 -4 C-15.27868809 -5.98345627 -6.74742274 -4.12342501 0 0 Z " fill="#252525" transform="translate(424,63)"/>
<path d="M0 0 C5.61 0 11.22 0 17 0 C17 3.63 17 7.26 17 11 C16.34 11 15.68 11 15 11 C15 8.03 15 5.06 15 2 C10.38 2 5.76 2 1 2 C0.67 1.34 0.34 0.68 0 0 Z " fill="#215045" transform="translate(789,60)"/>
<path d="M0 0 C16.8929385 -0.55353075 16.8929385 -0.55353075 24 3 C24 3.66 24 4.32 24 5 C22.824375 4.690625 21.64875 4.38125 20.4375 4.0625 C13.71803595 2.54415957 6.85955634 2.3434297 0 2 C0 1.34 0 0.68 0 0 Z " fill="#164B3D" transform="translate(574,52)"/>
<path d="M0 0 C1.67345374 1.20066904 3.27436679 2.50118667 4.859375 3.81640625 C3.109375 4.50390625 3.109375 4.50390625 0.859375 4.81640625 C-0.48887245 3.83660699 -1.82115993 2.83463496 -3.140625 1.81640625 C-5.65455102 1.31892032 -5.65455102 1.31892032 -8.265625 1.25390625 C-12.93157664 1.02545461 -12.93157664 1.02545461 -15.140625 -1.18359375 C-10.01027851 -2.68911304 -4.75479816 -2.62902161 0 0 Z " fill="#194B41" transform="translate(89.140625,14.18359375)"/>
<path d="M0 0 C3.12492251 -0.05791844 6.24970766 -0.09356746 9.375 -0.125 C10.26445312 -0.14175781 11.15390625 -0.15851563 12.0703125 -0.17578125 C12.92109375 -0.18222656 13.771875 -0.18867187 14.6484375 -0.1953125 C15.82672119 -0.21102295 15.82672119 -0.21102295 17.02880859 -0.22705078 C19 0 19 0 21 2 C13.46818582 2.75667376 6.49719609 3.14364008 -1 2 C-0.67 1.34 -0.34 0.68 0 0 Z " fill="#282828" transform="translate(205,121)"/>
<path d="M0 0 C-1.94794074 0.98908743 -3.89087779 1.95252621 -5.89453125 2.82421875 C-11.34120443 5.27577633 -15.026121 8.57905961 -19 13 C-19.33 12.01 -19.66 11.02 -20 10 C-13.90880795 3.42223344 -9.4432796 -0.56659678 0 0 Z " fill="#184F42" transform="translate(720,61)"/>
<path d="M0 0 C3.11223004 3.65806731 4.81550196 7.75570185 6.6875 12.125 C7.00783203 12.85332031 7.32816406 13.58164063 7.65820312 14.33203125 C10 19.73464152 10 19.73464152 10 22 C7 21 7 21 6.0168457 19.3894043 C5.6005188 18.36713745 5.6005188 18.36713745 5.17578125 17.32421875 C4.86962891 16.57849609 4.56347656 15.83277344 4.24804688 15.06445312 C3.93931641 14.28005859 3.63058594 13.49566406 3.3125 12.6875 C2.99216797 11.91470703 2.67183594 11.14191406 2.34179688 10.34570312 C0.80770408 6.5415455 0 4.20042617 0 0 Z " fill="#232323" transform="translate(460,87)"/>
<path d="M0 0 C0 3 0 3 -1.5625 5.375 C-3.21735774 7.8760479 -3.21735774 7.8760479 -2.9375 10.5625 C-1.8204515 13.4668261 -0.3277176 14.97263306 2 17 C1.34 17.33 0.68 17.66 0 18 C-3.43354461 15.79900986 -4.81954867 14.57319833 -6.0625 10.625 C-5.98603205 6.18985876 -4.80644332 4.36773198 -2 1 C-1.34 0.67 -0.68 0.34 0 0 Z " fill="#184B3F" transform="translate(569,54)"/>
<path d="M0 0 C1.64820195 2.60242414 2 3.86248779 2 7 C1.34 7 0.68 7 0 7 C-0.19335938 6.35546875 -0.38671875 5.7109375 -0.5859375 5.046875 C-1.88708247 2.65648799 -1.88708247 2.65648799 -5.0390625 2.390625 C-6.81410156 2.32101563 -6.81410156 2.32101563 -8.625 2.25 C-9.81351562 2.19328125 -11.00203125 2.1365625 -12.2265625 2.078125 C-13.14179688 2.05234375 -14.05703125 2.0265625 -15 2 C-12.54593984 -0.45406016 -11.4528512 -0.38381215 -8.0625 -0.6875 C-7.18722656 -0.77386719 -6.31195313 -0.86023437 -5.41015625 -0.94921875 C-3 -1 -3 -1 0 0 Z " fill="#232323" transform="translate(464,60)"/>
<path d="M0 0 C0 0.66 0 1.32 0 2 C-2.95857409 2.05379226 -5.91617721 2.09357093 -8.875 2.125 C-10.13763672 2.15013672 -10.13763672 2.15013672 -11.42578125 2.17578125 C-12.23144531 2.18222656 -13.03710938 2.18867187 -13.8671875 2.1953125 C-14.61081543 2.20578613 -15.35444336 2.21625977 -16.12060547 2.22705078 C-18 2 -18 2 -20 0 C-13.16920852 -1.18225237 -6.87368733 -0.74464946 0 0 Z " fill="#282828" transform="translate(226,40)"/>
<path d="M0 0 C0.9075 0.309375 1.815 0.61875 2.75 0.9375 C8.04506536 2.47689013 13.52225363 2.65820302 19 3 C19 3.66 19 4.32 19 5 C11.56621057 5.33452052 5.80122845 5.13902852 -1 2 C-0.67 1.34 -0.34 0.68 0 0 Z " fill="#19493E" transform="translate(644,118)"/>
<path d="M0 0 C6.27 0 12.54 0 19 0 C19 0.66 19 1.32 19 2 C12.41816638 2.8931507 6.57849492 2.95494281 0 2 C0 1.34 0 0.68 0 0 Z " fill="#204D43" transform="translate(570,121)"/>
<path d="M0 0 C6.35450323 1.24702151 12.68327435 2.57364259 19 4 C19 4.66 19 5.32 19 6 C12.31006781 5.46048934 6.36539272 4.11293829 0 2 C0 1.34 0 0.68 0 0 Z " fill="#222222" transform="translate(198,83)"/>
<path d="M0 0 C0.2475 0.53625 0.495 1.0725 0.75 1.625 C3.23648136 6.34931458 6.08423608 10.3639335 10 14 C9.01 14.66 8.02 15.32 7 16 C5.84299806 14.61341021 4.69982377 13.21527559 3.5625 11.8125 C2.92441406 11.03519531 2.28632812 10.25789063 1.62890625 9.45703125 C-0.09067492 6.86322656 -0.71518096 5.08122411 -1 2 C-0.67 1.34 -0.34 0.68 0 0 Z " fill="#20564C" transform="translate(638,94)"/>
<path d="M0 0 C0.268125 0.556875 0.53625 1.11375 0.8125 1.6875 C1.4003125 2.8321875 1.4003125 2.8321875 2 4 C2.37125 4.78375 2.7425 5.5675 3.125 6.375 C5.78650648 10.10110907 9.26115682 12.41566897 13 15 C11.26171875 15.70703125 11.26171875 15.70703125 9 16 C6.89453125 14.63671875 6.89453125 14.63671875 4.8125 12.6875 C4.11769531 12.05199219 3.42289063 11.41648437 2.70703125 10.76171875 C0.11309814 8.08468481 0.00405383 7.23512242 -0.0625 3.375 C-0.041875 2.26125 -0.02125 1.1475 0 0 Z " fill="#282828" transform="translate(185,67)"/>
<path d="M0 0 C2.02285879 2.02285879 4.03915012 4.041597 6 6.125 C7.88469683 8.0775849 7.88469683 8.0775849 10.1875 9.0625 C12 10 12 10 13 13 C8.48749249 11.74069558 5.37319716 10.28202967 2 7 C0.1875 3.75 0.1875 3.75 -1 1 C-0.67 0.67 -0.34 0.34 0 0 Z " fill="#232323" transform="translate(308,109)"/>
<path d="M0 0 C0.66 0 1.32 0 2 0 C2.21802745 6.01998014 2.28020848 11.35948428 0 17 C-0.99 17.33 -1.98 17.66 -3 18 C-2.86722656 17.45472656 -2.73445312 16.90945312 -2.59765625 16.34765625 C-1.32210753 10.90097013 -0.53036157 5.56879648 0 0 Z " fill="#1E5244" transform="translate(759,87)"/>
<path d="M0 0 C0.66 0.99 1.32 1.98 2 3 C1.58447266 4.80932617 1.58447266 4.80932617 0.6640625 6.79296875 C0.34179688 7.50517578 0.01953125 8.21738281 -0.3125 8.95117188 C-0.663125 9.68916016 -1.01375 10.42714844 -1.375 11.1875 C-1.71789062 11.93708984 -2.06078125 12.68667969 -2.4140625 13.45898438 C-3.26371255 15.31169351 -4.13028359 17.15662546 -5 19 C-5.66 18.67 -6.32 18.34 -7 18 C-5.44303409 11.630594 -2.8018492 5.91382675 0 0 Z " fill="#232323" transform="translate(507,75)"/>
<path d="M0 0 C-0.33 0.99 -0.66 1.98 -1 3 C-5.29 2.67 -9.58 2.34 -14 2 C-14.33 2.66 -14.66 3.32 -15 4 C-15 2.68 -15 1.36 -15 0 C-13.06325815 -0.19517554 -11.12555991 -0.38087873 -9.1875 -0.5625 C-8.10855469 -0.66691406 -7.02960938 -0.77132812 -5.91796875 -0.87890625 C-3 -1 -3 -1 0 0 Z " fill="#252626" transform="translate(515,60)"/>
<path d="M0 0 C5.28 0.66 10.56 1.32 16 2 C16 2.66 16 3.32 16 4 C13.69 4.33 11.38 4.66 9 5 C9 4.67 9 4.34 9 4 C6.03 3.67 3.06 3.34 0 3 C0 2.01 0 1.02 0 0 Z " fill="#1F5244" transform="translate(580,39)"/>
<path d="M0 0 C0.99 0 1.98 0 3 0 C6.79953026 4.35060717 9.56533934 9.40482341 11 15 C10.01 15.495 10.01 15.495 9 16 C8.68546875 15.34773438 8.3709375 14.69546875 8.046875 14.0234375 C5.6376734 9.10344145 3.17376659 4.4667826 0 0 Z " fill="#1A4A3F" transform="translate(749,67)"/>
<path d="M0 0 C0.33 0.99 0.66 1.98 1 3 C0.01 4.485 0.01 4.485 -1 6 C-0.071875 6.28875 0.85625 6.5775 1.8125 6.875 C5 8 5 8 8 10 C8 10.66 8 11.32 8 12 C3.94718288 10.77472971 0.55639236 9.30119506 -3 7 C-2.67 5.35 -2.34 3.7 -2 2 C-1.34 2 -0.68 2 0 2 C0 1.34 0 0.68 0 0 Z " fill="#1E4D3E" transform="translate(550,107)"/>
<path d="M0 0 C0.99 0.33 1.98 0.66 3 1 C3.33 1.99 3.66 2.98 4 4 C-0.95 4 -5.9 4 -11 4 C-10.67 3.01 -10.34 2.02 -10 1 C-7.98177083 1.03255208 -5.96354167 1.06510417 -3.9453125 1.09765625 C-1.91814596 1.12649242 -1.91814596 1.12649242 0 0 Z " fill="#194A3F" transform="translate(804,107)"/>
<path d="M0 0 C0 0.66 0 1.32 0 2 C-8.415 2.495 -8.415 2.495 -17 3 C-16.67 2.01 -16.34 1.02 -16 0 C-13.89651926 -0.19504458 -11.79217415 -0.38078496 -9.6875 -0.5625 C-8.51574219 -0.66691406 -7.34398437 -0.77132812 -6.13671875 -0.87890625 C-3 -1 -3 -1 0 0 Z " fill="#212121" transform="translate(320,60)"/>
<path d="M0 0 C0.66 0 1.32 0 2 0 C2 0.66 2 1.32 2 2 C3.32 2.66 4.64 3.32 6 4 C6 4.66 6 5.32 6 6 C3.525 5.01 3.525 5.01 1 4 C1 7.3 1 10.6 1 14 C0.67 14 0.34 14 0 14 C-0.19393875 11.85473901 -0.37998676 9.70876323 -0.5625 7.5625 C-0.71912109 5.77005859 -0.71912109 5.77005859 -0.87890625 3.94140625 C-0.91886719 2.97074219 -0.95882812 2.00007813 -1 1 C-0.67 0.67 -0.34 0.34 0 0 Z " fill="#114B3D" transform="translate(637,113)"/>
<path d="M0 0 C0.99 0 1.98 0 3 0 C4.01351664 1.65848177 5.01120795 3.32665961 6 5 C7.65533995 6.34736973 9.32012773 7.68334336 11 9 C11 9.66 11 10.32 11 11 C6.296847 9.6167197 2.89806188 6.91387738 0 3 C0 2.01 0 1.02 0 0 Z " fill="#205347" transform="translate(700,108)"/>
<path d="M0 0 C0.66 0 1.32 0 2 0 C2.61669998 6.90703976 1.11242982 10.47759424 -3 16 C-3.33 15.01 -3.66 14.02 -4 13 C-3 11 -2 9 -1 7 C-0.2863276 3.26228166 -0.2863276 3.26228166 0 0 Z " fill="#1C5044" transform="translate(672,90)"/>
<path d="M0 0 C0.99 0.33 1.98 0.66 3 1 C3.2475 1.7425 3.495 2.485 3.75 3.25 C5.52401478 7.15283253 8.44518701 8.76636082 12 11 C10.23046875 11.66015625 10.23046875 11.66015625 8 12 C5.19122906 10.50547799 3.03842389 8.43001584 1 6 C0.0625 2.625 0.0625 2.625 0 0 Z " fill="#1E5246" transform="translate(551,71)"/>
<path d="M0 0 C0.33 0 0.66 0 1 0 C1 2.31 1 4.62 1 7 C3.64 5.68 6.28 4.36 9 3 C6.79784009 7.40431982 5.16204503 8.5721404 1 11 C0.34 11 -0.32 11 -1 11 C-0.67 7.37 -0.34 3.74 0 0 Z " fill="#194E43" transform="translate(86,139)"/>
<path d="M0 0 C1.13480527 3.60993172 1.10015767 6.9842327 1.0625 10.75 C1.05347656 11.92046875 1.04445313 13.0909375 1.03515625 14.296875 C1.02355469 15.18890625 1.01195312 16.0809375 1 17 C0.34 17 -0.32 17 -1 17 C-2.38226016 14.23547967 -2.09525387 11.9538637 -2.0625 8.875 C-2.05347656 7.77929688 -2.04445313 6.68359375 -2.03515625 5.5546875 C-2.02355469 4.71164063 -2.01195312 3.86859375 -2 3 C-1.34 3 -0.68 3 0 3 C0 2.01 0 1.02 0 0 Z " fill="#252525" transform="translate(377,82)"/>
<path d="M0 0 C9 6 9 6 9.73046875 8.1640625 C9.88128906 8.97617188 10.03210938 9.78828125 10.1875 10.625 C10.34605469 11.44226563 10.50460937 12.25953125 10.66796875 13.1015625 C10.77753906 13.72804688 10.88710938 14.35453125 11 15 C10.34 15 9.68 15 9 15 C8.608125 13.948125 8.21625 12.89625 7.8125 11.8125 C5.71182905 6.89434148 2.41362957 3.94241971 -2 1 C-1.34 0.67 -0.68 0.34 0 0 Z " fill="#222222" transform="translate(416,72)"/>
<path d="M0 0 C-1.26190138 3.78570414 -2.54855815 4.21831571 -5.9375 6.1875 C-6.83339844 6.71730469 -7.72929688 7.24710937 -8.65234375 7.79296875 C-11 9 -11 9 -13 9 C-11.73809862 5.21429586 -10.45144185 4.78168429 -7.0625 2.8125 C-6.16660156 2.28269531 -5.27070312 1.75289062 -4.34765625 1.20703125 C-2 0 -2 0 0 0 Z " fill="#1A5044" transform="translate(98,60)"/>
<path d="M0 0 C0.66 0 1.32 0 2 0 C1.01 5.94 0.02 11.88 -1 18 C-1.33 18 -1.66 18 -2 18 C-2.05397335 15.5622037 -2.09365616 13.12560315 -2.125 10.6875 C-2.14175781 9.99720703 -2.15851563 9.30691406 -2.17578125 8.59570312 C-2.21217794 4.82864604 -2.14378864 3.21568296 0 0 Z " fill="#303030" transform="translate(186,54)"/>
<path d="M0 0 C0.33 0 0.66 0 1 0 C1.03738281 0.76183594 1.07476563 1.52367188 1.11328125 2.30859375 C1.53848412 8.98678001 2.50385324 14.78318166 5 21 C2 20 2 20 1.015625 18.3203125 C-1.2096018 11.93981523 -1.02945417 6.63563832 0 0 Z " fill="#17483C" transform="translate(695,86)"/>
<path d="M0 0 C1.32 0 2.64 0 4 0 C5.305239 3.91571701 4.32239848 5.03892997 2.5625 8.6875 C2.08941406 9.68136719 1.61632812 10.67523438 1.12890625 11.69921875 C0.57009766 12.83810547 0.57009766 12.83810547 0 14 C-0.66 14 -1.32 14 -2 14 C-1.52309796 12.37433394 -1.04340334 10.74948689 -0.5625 9.125 C-0.16224609 7.76761719 -0.16224609 7.76761719 0.24609375 6.3828125 C1 4 1 4 2 2 C1.34 1.34 0.68 0.68 0 0 Z " fill="#1D4D41" transform="translate(605,46)"/>
<path d="M0 0 C0.42796875 0.57621094 0.8559375 1.15242188 1.296875 1.74609375 C2.38977147 3.19242693 3.50288999 4.62382305 4.640625 6.03515625 C5.17171875 6.70417969 5.7028125 7.37320313 6.25 8.0625 C6.79140625 8.73410156 7.3328125 9.40570313 7.890625 10.09765625 C8.25671875 10.72542969 8.6228125 11.35320312 9 12 C8.67 12.99 8.34 13.98 8 15 C7.03644756 13.92130607 6.07938583 12.83681257 5.125 11.75 C4.59132813 11.14671875 4.05765625 10.5434375 3.5078125 9.921875 C0.75134519 6.40845034 0 4.56153692 0 0 Z " fill="#262626" transform="translate(378,102)"/>
<path d="M0 0 C1.48693359 0.11794922 1.48693359 0.11794922 3.00390625 0.23828125 C3.80699219 0.38652344 4.61007812 0.53476562 5.4375 0.6875 C5.7675 1.3475 6.0975 2.0075 6.4375 2.6875 C2.4775 2.6875 -1.4825 2.6875 -5.5625 2.6875 C-5.8925 3.3475 -6.2225 4.0075 -6.5625 4.6875 C-6.8925 3.3675 -7.2225 2.0475 -7.5625 0.6875 C-4.86233366 -0.66258317 -2.99272164 -0.26142419 0 0 Z " fill="#242525" transform="translate(356.5625,59.3125)"/>
<path d="M0 0 C1.83863505 1.11631414 3.67079723 2.24329627 5.5 3.375 C6.5209375 4.00148438 7.541875 4.62796875 8.59375 5.2734375 C9.3878125 5.84320313 10.181875 6.41296875 11 7 C11 7.66 11 8.32 11 9 C6.49068763 8.46949266 3.51318661 6.8595705 0 4 C0 2.68 0 1.36 0 0 Z " fill="#272727" transform="translate(182,110)"/>
<path d="M0 0 C0.556875 0.721875 1.11375 1.44375 1.6875 2.1875 C3.97909334 4.97457299 6.41459857 7.48641528 9 10 C8.01 10.495 8.01 10.495 7 11 C4.36 9.02 1.72 7.04 -1 5 C-0.67 3.35 -0.34 1.7 0 0 Z " fill="#215449" transform="translate(711,98)"/>
<path d="M0 0 C0.99 0.33 1.98 0.66 3 1 C0.69 4.63 -1.62 8.26 -4 12 C-4.66 11.67 -5.32 11.34 -6 11 C-5.37755401 9.72791378 -4.75193233 8.45738118 -4.125 7.1875 C-3.77695312 6.47980469 -3.42890625 5.77210937 -3.0703125 5.04296875 C-2 3 -2 3 0 0 Z " fill="#202020" transform="translate(382,69)"/>
<path d="M0 0 C1.54296875 1.2109375 1.54296875 1.2109375 3 3 C2.92578125 5.2265625 2.92578125 5.2265625 2.3125 7.625 C2.12300781 8.42164063 1.93351562 9.21828125 1.73828125 10.0390625 C1 12 1 12 -1 13 C-1.38218767 11.34385343 -1.71395102 9.67542976 -2 8 C-1.67 7.67 -1.34 7.34 -1 7 C-0.63239269 4.67182036 -0.29758419 2.3381615 0 0 Z " fill="#215347" transform="translate(95,26)"/>
<path d="M0 0 C9.59453303 3.85421412 9.59453303 3.85421412 13 8 C9.2397015 7.41892368 6.46964968 6.34800504 3.1875 4.4375 C2.39730469 3.98246094 1.60710938 3.52742187 0.79296875 3.05859375 C0.20128906 2.70925781 -0.39039063 2.35992187 -1 2 C-0.67 1.34 -0.34 0.68 0 0 Z " fill="#184B3F" transform="translate(60,139)"/>
<path d="M0 0 C2.4375 1 2.4375 1 5 3 C6.22990442 6.90962996 6.29222376 10.12332871 5 14 C4.01 13.67 3.02 13.34 2 13 C2.33 12.67 2.66 12.34 3 12 C3.30451471 8.57420946 3.43772728 6.65659091 1.5 3.75 C1.005 3.1725 0.51 2.595 0 2 C0 1.34 0 0.68 0 0 Z " fill="#134A3C" transform="translate(592,91)"/>
<path d="M0 0 C4.875 3.75 4.875 3.75 6 6 C6.1875 9 6.1875 9 6 12 C5.34 12.66 4.68 13.32 4 14 C3 12 3 12 3.1875 9.1875 C2.95564228 5.24591876 1.65632603 3.82234641 -1 1 C-0.67 0.67 -0.34 0.34 0 0 Z " fill="#222222" transform="translate(227,91)"/>
<path d="M0 0 C0.66 0 1.32 0 2 0 C2.433125 1.093125 2.86625 2.18625 3.3125 3.3125 C4.49495641 6.09408793 5.60800043 8.06361939 8 10 C4 10 4 10 1.75 7.8125 C-0.11375268 4.81718319 -0.39344358 3.44263129 0 0 Z " fill="#232323" transform="translate(198,61)"/>
<path d="M0 0 C-2 2 -2 2 -4.8203125 2.1953125 C-5.91085937 2.17210937 -7.00140625 2.14890625 -8.125 2.125 C-9.22070312 2.10695312 -10.31640625 2.08890625 -11.4453125 2.0703125 C-12.28835938 2.04710937 -13.13140625 2.02390625 -14 2 C-14 1.34 -14 0.68 -14 0 C-9.20699867 -1.39151652 -4.84864218 -0.68662689 0 0 Z " fill="#174A3D" transform="translate(665,59)"/>
<path d="M0 0 C4.29 0.66 8.58 1.32 13 2 C12.67 2.66 12.34 3.32 12 4 C8.04 3.67 4.08 3.34 0 3 C0 2.01 0 1.02 0 0 Z " fill="#12493B" transform="translate(20,46)"/>
<path d="M0 0 C0 0.66 0 1.32 0 2 C-3.67410785 3.17571451 -7.16929183 3.07366746 -11 3 C-11.33 2.34 -11.66 1.68 -12 1 C-8.0186217 -0.3271261 -4.14954773 -0.06915913 0 0 Z " fill="#194639" transform="translate(146,127)"/>
<path d="M0 0 C0.66 0 1.32 0 2 0 C0.5666944 5.01656959 -1.90563952 7.01452882 -6 10 C-6.66 10 -7.32 10 -8 10 C-6.66415278 5.99245833 -4.23106172 4.62523764 -1 2 C-0.67 1.34 -0.34 0.68 0 0 Z " fill="#16493D" transform="translate(608,109)"/>
<path d="M0 0 C5.94 1.485 5.94 1.485 12 3 C12 3.66 12 4.32 12 5 C3.42857143 4.14285714 3.42857143 4.14285714 0 2 C0 1.34 0 0.68 0 0 Z " fill="#154C40" transform="translate(565,83)"/>
<path d="M0 0 C0.66 0.33 1.32 0.66 2 1 C2 4.63 2 8.26 2 12 C1.01 12.495 1.01 12.495 0 13 C-1.28571429 4.57142857 -1.28571429 4.57142857 0 0 Z " fill="#1B574B" transform="translate(64,23)"/>
<path d="M0 0 C0.66 0 1.32 0 2 0 C6.59225513 8.261959 6.59225513 8.261959 6 13 C2.10014426 8.84015388 1.10830253 5.44915409 0 0 Z " fill="#262626" transform="translate(475,91)"/>
<path d="M0 0 C-1.51671964 4.55015893 -5.16891053 6.50057264 -9 9 C-8.23445316 4.5768405 -4.94434503 0 0 0 Z " fill="#292929" transform="translate(197,44)"/>
<path d="M0 0 C0.66 0.66 1.32 1.32 2 2 C-2.455 4.97 -2.455 4.97 -7 8 C-7.33 7.01 -7.66 6.02 -8 5 C-4.04 2.525 -4.04 2.525 0 0 Z " fill="#252525" transform="translate(425,114)"/>
<path d="M0 0 C5.03985731 0.44469329 7.37634988 2.71343362 11 6 C8 7 8 7 5.95703125 6.07421875 C4.89548828 5.38779297 4.89548828 5.38779297 3.8125 4.6875 C3.09707031 4.23761719 2.38164063 3.78773437 1.64453125 3.32421875 C1.10183594 2.88722656 0.55914063 2.45023437 0 2 C0 1.34 0 0.68 0 0 Z " fill="#194A40" transform="translate(598,79)"/>
<path d="M0 0 C1.41750563 0.11509661 2.83401169 0.24253658 4.25 0.375 C5.03890625 0.44460937 5.8278125 0.51421875 6.640625 0.5859375 C9.085877 1.01507113 10.84836903 1.78600638 13 3 C3.58997722 3.18451025 3.58997722 3.18451025 -1 2 C-0.67 1.34 -0.34 0.68 0 0 Z " fill="#114839" transform="translate(23,128)"/>
<path d="M0 0 C0.99 0.33 1.98 0.66 3 1 C0.03 3.64 -2.94 6.28 -6 9 C-6.33 8.01 -6.66 7.02 -7 6 C-6.030625 5.38125 -5.06125 4.7625 -4.0625 4.125 C-0.97164638 2.34321154 -0.97164638 2.34321154 0 0 Z " fill="#164C3C" transform="translate(751,111)"/>
<path d="M0 0 C0.33 0.99 0.66 1.98 1 3 C-1.45906075 6.87774964 -3.61740632 8.66087415 -8 10 C-6.66415278 5.99245833 -4.23106172 4.62523764 -1 2 C-0.67 1.34 -0.34 0.68 0 0 Z " fill="#232323" transform="translate(243,109)"/>
<path d="M0 0 C2.02910711 0.25327449 4.04962145 0.57730068 6.0625 0.9375 C7.16722656 1.13214844 8.27195312 1.32679687 9.41015625 1.52734375 C10.69212891 1.76130859 10.69212891 1.76130859 12 2 C12 2.66 12 3.32 12 4 C10.39667209 4.08121924 8.79215974 4.13929134 7.1875 4.1875 C6.29417969 4.22230469 5.40085937 4.25710937 4.48046875 4.29296875 C1.58352485 3.95081002 0.77444972 3.24606427 -1 1 C-0.67 0.67 -0.34 0.34 0 0 Z " fill="#272727" transform="translate(277,107)"/>
<path d="M0 0 C0.66 0 1.32 0 2 0 C2.99 3.63 3.98 7.26 5 11 C4.01 11.495 4.01 11.495 3 12 C-0.42857143 4.71428571 -0.42857143 4.71428571 0 0 Z " fill="#2D2D2D" transform="translate(318,95)"/>
<path d="M0 0 C0.66 0.33 1.32 0.66 2 1 C1.67 1.99 1.34 2.98 1 4 C0.34 4 -0.32 4 -1 4 C-0.67 2.68 -0.34 1.36 0 0 Z M-2 4 C-1.34 4.33 -0.68 4.66 0 5 C-1.75 10.75 -1.75 10.75 -4 13 C-3.125 6.25 -3.125 6.25 -2 4 Z " fill="#202121" transform="translate(494,74)"/>
<path d="M0 0 C-1.49041773 3.79379058 -3.69062512 5.68343758 -7 8 C-7.66 8 -8.32 8 -9 8 C-7.70948419 4.12845257 -4.40863591 0 0 0 Z " fill="#262626" transform="translate(483,135)"/>
<path d="M0 0 C5.01656959 1.4333056 7.01452882 3.90563952 10 8 C10 8.66 10 9.32 10 10 C9.34 10 8.68 10 8 10 C6.6459068 8.01399663 5.31542376 6.01182457 4 4 C2.70317626 2.63113049 1.38176866 1.2830709 0 0 Z " fill="#165043" transform="translate(735,73)"/>
<path d="M0 0 C1.45880109 0.14107747 2.91703551 0.28802415 4.375 0.4375 C5.59316406 0.55931641 5.59316406 0.55931641 6.8359375 0.68359375 C9 1 9 1 11 2 C11 2.66 11 3.32 11 4 C7.37 3.34 3.74 2.68 0 2 C0 1.34 0 0.68 0 0 Z " fill="#2A2B2B" transform="translate(215,74)"/>
<path d="M0 0 C2.97 1.65 5.94 3.3 9 5 C8.67 5.66 8.34 6.32 8 7 C5.36 5.68 2.72 4.36 0 3 C0 2.01 0 1.02 0 0 Z " fill="#272727" transform="translate(448,138)"/>
<path d="M0 0 C1.12588014 0.95729916 2.2506715 1.91587895 3.375 2.875 C4.00148438 3.40867187 4.62796875 3.94234375 5.2734375 4.4921875 C6.55836651 5.61432007 7.79371975 6.79371975 9 8 C6.8125 8.375 6.8125 8.375 4 8 C2.00977164 6.16038352 0.61010101 4.20813852 -1 2 C-0.67 1.34 -0.34 0.68 0 0 Z " fill="#252525" transform="translate(263,112)"/>
<path d="M0 0 C0.66 0.66 1.32 1.32 2 2 C1.8185339 4.60491661 1.53723614 7.05681623 1.125 9.625 C1.02058594 10.33140625 0.91617188 11.0378125 0.80859375 11.765625 C0.54900874 13.51192414 0.27578567 15.25618599 0 17 C-0.33 17 -0.66 17 -1 17 C-1.02709444 14.91673869 -1.04643873 12.83337559 -1.0625 10.75 C-1.07410156 9.58984375 -1.08570313 8.4296875 -1.09765625 7.234375 C-1.01782092 4.59022872 -0.78643778 2.50173909 0 0 Z " fill="#1D5549" transform="translate(695,80)"/>
<path d="M0 0 C0.99 0.33 1.98 0.66 3 1 C2.13375 1.61875 2.13375 1.61875 1.25 2.25 C-1.02516599 4.01957355 -2.99995399 5.92852378 -5 8 C-5.99 7.67 -6.98 7.34 -8 7 C-6.74057614 5.80040625 -5.46704714 4.61560557 -4.1875 3.4375 C-3.12595703 2.44556641 -3.12595703 2.44556641 -2.04296875 1.43359375 C-1.36878906 0.96050781 -0.69460938 0.48742187 0 0 Z " fill="#154A3E" transform="translate(719,72)"/>
<path d="M0 0 C0.33 0 0.66 0 1 0 C0.53199289 4.05606165 0.12046792 7.46588679 -2 11 C-2.66 11 -3.32 11 -4 11 C-3.52269162 9.5410574 -3.04308958 8.08286504 -2.5625 6.625 C-2.29566406 5.81289063 -2.02882812 5.00078125 -1.75390625 4.1640625 C-1 2 -1 2 0 0 Z " fill="#2A2A2A" transform="translate(243,46)"/>
<path d="M0 0 C-0.33 1.32 -0.66 2.64 -1 4 C-1.33 3.67 -1.66 3.34 -2 3 C-3.34747084 2.76924918 -4.70377565 2.58846937 -6.0625 2.4375 C-7.361875 2.293125 -8.66125 2.14875 -10 2 C-3.75 -1.125 -3.75 -1.125 0 0 Z " fill="#154E3F" transform="translate(145,47)"/>
<path d="M0 0 C3.96 1.98 3.96 1.98 8 4 C8 4.66 8 5.32 8 6 C3.68607774 5.5206753 1.83430453 4.2542015 -1 1 C-0.67 0.67 -0.34 0.34 0 0 Z " fill="#194B3C" transform="translate(69,40)"/>
<path d="M0 0 C3.3 0.99 6.6 1.98 10 3 C9.34 3.66 8.68 4.32 8 5 C5.17042171 4.63723355 2.70915709 3.90305236 0 3 C0 2.01 0 1.02 0 0 Z " fill="#161916" transform="translate(452,128)"/>
<path d="M0 0 C0.66 0 1.32 0 2 0 C1.88637738 1.4800841 1.75877092 2.95910074 1.625 4.4375 C1.52058594 5.67306641 1.52058594 5.67306641 1.4140625 6.93359375 C1.27742188 7.61550781 1.14078125 8.29742187 1 9 C0.01 9.495 0.01 9.495 -1 10 C-1.125 3.375 -1.125 3.375 0 0 Z " fill="#2D2D2D" transform="translate(390,84)"/>
<path d="M0 0 C0.99 0.66 1.98 1.32 3 2 C-1.95 3.485 -1.95 3.485 -7 5 C-7 4.34 -7 3.68 -7 3 C-3.6875 1.375 -3.6875 1.375 0 0 Z " fill="#184F42" transform="translate(113,133)"/>
<path d="M0 0 C0.66 0.33 1.32 0.66 2 1 C1.67 3.97 1.34 6.94 1 10 C0.34 10 -0.32 10 -1 10 C-0.67 6.7 -0.34 3.4 0 0 Z " fill="#1F574B" transform="translate(686,93)"/>
<path d="M0 0 C2.64 0.99 5.28 1.98 8 3 C8 3.66 8 4.32 8 5 C5.36 4.34 2.72 3.68 0 3 C0 2.01 0 1.02 0 0 Z " fill="#1D4A3F" transform="translate(589,75)"/>
<path d="M0 0 C2.97 0.99 5.94 1.98 9 3 C9 3.66 9 4.32 9 5 C4.545 4.01 4.545 4.01 0 3 C0 2.01 0 1.02 0 0 Z " fill="#1D5045" transform="translate(589,52)"/>
<path d="M0 0 C0 0.66 0 1.32 0 2 C-7.625 3.25 -7.625 3.25 -11 1 C-7.26562152 0.12132271 -3.83225427 -0.08912219 0 0 Z " fill="#194E42" transform="translate(577,40)"/>
<path d="M0 0 C0.99 0.33 1.98 0.66 3 1 C-2.14285714 5.42857143 -2.14285714 5.42857143 -6 6 C-2.25 1.125 -2.25 1.125 0 0 Z " fill="#154439" transform="translate(72,14)"/>
<path d="M0 0 C2.64 0.66 5.28 1.32 8 2 C8 2.66 8 3.32 8 4 C5.36 3.67 2.72 3.34 0 3 C0 2.01 0 1.02 0 0 Z " fill="#1B473D" transform="translate(712,118)"/>
<path d="M0 0 C0.66 0.66 1.32 1.32 2 2 C1.625 5.625 1.625 5.625 1 9 C0.01 9.33 -0.98 9.66 -2 10 C-1.34 6.7 -0.68 3.4 0 0 Z " fill="#242524" transform="translate(246,98)"/>
<path d="M0 0 C0.66 0.33 1.32 0.66 2 1 C2.625 3.5625 2.625 3.5625 3 6 C1.02 6.99 1.02 6.99 -1 8 C-2 6 -2 6 -1.0625 2.875 C-0.5365625 1.451875 -0.5365625 1.451875 0 0 Z " fill="#1C4E43" transform="translate(744,94)"/>
<path d="M0 0 C0.66 0.33 1.32 0.66 2 1 C0.68 3.31 -0.64 5.62 -2 8 C-2.66 7.67 -3.32 7.34 -4 7 C-2.92598892 4.08482708 -2.22189824 2.22189824 0 0 Z " fill="#1F1F1F" transform="translate(395,76)"/>
<path d="M0 0 C3.36591866 1.44253657 5.51047079 3.33264727 8 6 C7.01 6.495 7.01 6.495 6 7 C1.125 3.375 1.125 3.375 0 0 Z " fill="#244F45" transform="translate(563,65)"/>
<path d="M0 0 C0 0.99 0 1.98 0 3 C-2.875 3.125 -2.875 3.125 -6 3 C-6.66 2.34 -7.32 1.68 -8 1 C-5.10765685 0.17361624 -3.11257569 0 0 0 Z " fill="#145449" transform="translate(82,12)"/>
<path d="M0 0 C0 0.66 0 1.32 0 2 C-5.75 5 -5.75 5 -8 5 C-8 4.34 -8 3.68 -8 3 C-2.25 0 -2.25 0 0 0 Z " fill="#144F41" transform="translate(104,138)"/>
<path d="M0 0 C0.66 0 1.32 0 2 0 C2 0.66 2 1.32 2 2 C3.32 2.66 4.64 3.32 6 4 C6 4.66 6 5.32 6 6 C3.11562221 4.70700306 1.12780579 3.34058637 -1 1 C-0.67 0.67 -0.34 0.34 0 0 Z " fill="#1D5347" transform="translate(637,113)"/>
<path d="M0 0 C3.26954202 0.56371414 4.82575883 1.49962266 7 4 C6.01 4.66 5.02 5.32 4 6 C0 1.125 0 1.125 0 0 Z " fill="#1D4D42" transform="translate(641,104)"/>
<path d="M0 0 C0.66 0.33 1.32 0.66 2 1 C1.42655063 3.86724686 1.1385485 4.8614515 -1 7 C-1.99 6.67 -2.98 6.34 -4 6 C-3.525625 5.566875 -3.05125 5.13375 -2.5625 4.6875 C-0.76313043 2.97690387 -0.76313043 2.97690387 0 0 Z " fill="#1F1F1F" transform="translate(347,99)"/>
<path d="M0 0 C3.625 0.375 3.625 0.375 7 1 C7 1.66 7 2.32 7 3 C4.03 2.67 1.06 2.34 -2 2 C-1.34 1.34 -0.68 0.68 0 0 Z " fill="#1B1C1C" transform="translate(210,86)"/>
<path d="M0 0 C0.66 0.66 1.32 1.32 2 2 C1.34 2 0.68 2 0 2 C-0.4021875 3.2065625 -0.4021875 3.2065625 -0.8125 4.4375 C-1.4003125 5.7059375 -1.4003125 5.7059375 -2 7 C-2.99 7.33 -3.98 7.66 -5 8 C-3.8141763 4.62496331 -2.72426311 2.35277269 0 0 Z " fill="#164237" transform="translate(643,75)"/>
<path d="M0 0 C0.66 0.99 1.32 1.98 2 3 C1.01 4.98 0.02 6.96 -1 9 C-1.66 8.34 -2.32 7.68 -3 7 C-2.01 4.69 -1.02 2.38 0 0 Z " fill="#2B2B2B" transform="translate(507,75)"/>
<path d="M0 0 C0.99 0.33 1.98 0.66 3 1 C4.1875 4.5625 4.1875 4.5625 5 8 C4.34 8 3.68 8 3 8 C2.01 5.36 1.02 2.72 0 0 Z " fill="#205348" transform="translate(682,73)"/>
<path d="M0 0 C3 1 3 1 4.1875 2.875 C5 5 5 5 5 8 C4.34 8 3.68 8 3 8 C2.67 6.02 2.34 4.04 2 2 C1.34 2 0.68 2 0 2 C0 1.34 0 0.68 0 0 Z " fill="#2A2A2A" transform="translate(461,59)"/>
<path d="M0 0 C7.75 0.75 7.75 0.75 10 3 C5.82412255 4.39195915 3.86525224 2.82323219 0 1 C0 0.67 0 0.34 0 0 Z " fill="#1C5145" transform="translate(45,53)"/>
</svg>
